<svg width="35" height="35" viewBox="0 0 35 35" fill="none" xmlns="http://www.w3.org/2000/svg">
    <path d="M14.3993 16.4498C15.1256 16.0845 15.6747 15.6776 16.051 15.2379C16.7204 14.4459 17.0508 13.3958 17.0508 12.0942C17.0508 10.8275 16.7204 9.7446 16.0598 8.83671C14.9572 7.35784 13.0911 6.6009 10.4527 6.56152H0V27.898H9.74611C10.8443 27.898 11.8616 27.8039 12.8023 27.6114C13.743 27.4167 14.5568 27.0601 15.2459 26.5394C15.8585 26.0866 16.3704 25.5243 16.7773 24.8615C17.4205 23.8595 17.7421 22.7241 17.7421 21.4596C17.7421 20.2345 17.4599 19.191 16.8998 18.3334C16.3332 17.4759 15.5019 16.848 14.3993 16.4498ZM4.31192 10.2675H9.0198C10.0546 10.2675 10.9078 10.379 11.5772 10.6C12.3516 10.9216 12.7389 11.5757 12.7389 12.5733C12.7389 13.468 12.4435 14.0937 11.8594 14.4459C11.2709 14.7981 10.5074 14.9753 9.5711 14.9753H4.31192V10.2675ZM11.7566 23.8201C11.2359 24.0717 10.503 24.1964 9.56454 24.1964H4.31192V18.5063H9.63673C10.5643 18.5128 11.2862 18.6353 11.8025 18.865C12.7214 19.2807 13.1786 20.042 13.1786 21.1555C13.1786 22.4681 12.706 23.352 11.7566 23.8201Z" fill="#4E00F7"/>
    <path d="M31.636 7.55664H22.3668V10.2125H31.636V7.55664Z" fill="#4E00F7"/>
    <path d="M34.8561 18.0382C34.6635 16.8021 34.2391 15.7149 33.5784 14.7763C32.8543 13.7131 31.9355 12.9343 30.8176 12.4421C29.7041 11.9477 28.4505 11.7005 27.0548 11.7027C24.7118 11.7027 22.8085 12.4355 21.3362 13.8903C19.8683 15.3495 19.1332 17.4475 19.1332 20.1821C19.1332 23.0983 19.9448 25.205 21.5768 26.4979C23.2023 27.793 25.0793 28.4384 27.2101 28.4384C29.7894 28.4384 31.7955 27.6705 33.2284 26.1391C34.1451 25.1722 34.6635 24.2205 34.7773 23.2864H30.5069C30.2597 23.748 29.9732 24.109 29.645 24.3715C29.05 24.8528 28.2755 25.0934 27.3261 25.0934C26.4226 25.0934 25.6569 24.8944 25.0181 24.4984C23.9636 23.864 23.4123 22.7526 23.3423 21.1709H34.9961C35.0136 19.808 34.9698 18.7601 34.8561 18.0382ZM23.4473 18.4473C23.6004 17.4212 23.9724 16.6074 24.563 16.0058C25.1537 15.4064 25.9894 15.1045 27.0592 15.1023C28.0458 15.1023 28.8706 15.3845 29.5422 15.9511C30.205 16.5221 30.5791 17.3512 30.6557 18.4473H23.4473Z" fill="#4E00F7"/>
</svg>