<svg width="281" height="51" viewBox="0 0 281 51" fill="none" xmlns="http://www.w3.org/2000/svg">
    <path d="M9.29927 48.1581C8.59194 48.1581 8.03024 47.9709 7.61417 47.5964C7.19809 47.1804 6.94845 46.6811 6.86523 46.0986L0.0624113 6.21782C0.0208038 6.093 0 5.94737 0 5.78094C0 5.44808 0.124822 5.15683 0.374467 4.90718C0.66572 4.61593 0.977776 4.4703 1.31064 4.4703H9.04962C10.2146 4.4703 10.8595 4.92799 10.9844 5.84335L15.0411 30.1837L19.5347 15.8291C19.9924 14.7057 20.6789 14.144 21.5943 14.144H26.0879C27.1281 14.144 27.8146 14.7057 28.1474 15.8291L32.6411 30.1837L36.6978 5.84335C36.8226 4.92799 37.4675 4.4703 38.6325 4.4703H46.3715C46.746 4.4703 47.058 4.61593 47.3077 4.90718C47.5989 5.15683 47.7446 5.44808 47.7446 5.78094L47.6822 6.21782L40.8793 46.0986C40.7961 46.6811 40.5257 47.1804 40.068 47.5964C39.6519 47.9709 39.111 48.1581 38.4453 48.1581H32.5162C31.8505 48.1581 31.3304 47.9917 30.956 47.6589C30.5815 47.326 30.311 46.9515 30.1446 46.5354L23.8411 28.6858L17.5375 46.5354C17.1631 47.6172 16.3933 48.1581 15.2283 48.1581H9.29927Z" fill="#4E00F7"/>
    <path d="M67.3714 48.7822C62.3785 48.7822 58.4466 47.43 55.5757 44.7255C52.7048 42.021 51.2069 38.0891 51.0821 32.9298V30.7454C51.2485 25.8357 52.7672 22.0079 55.6381 19.2618C58.5506 16.4741 62.4409 15.0802 67.309 15.0802C70.8456 15.0802 73.8206 15.8083 76.2338 17.2646C78.6886 18.6793 80.5194 20.6348 81.726 23.1313C82.9742 25.6277 83.5983 28.4986 83.5983 31.744V33.2419C83.5983 33.6579 83.4527 34.0324 83.1615 34.3653C82.8702 34.6565 82.4957 34.8021 82.038 34.8021H62.0665V35.239C62.1497 37.1946 62.6282 38.7757 63.5019 39.9823C64.3757 41.1889 65.6447 41.7922 67.309 41.7922C68.3492 41.7922 69.2021 41.5842 69.8679 41.1681C70.5336 40.7104 71.1369 40.1695 71.6778 39.5454C72.0523 39.0877 72.3435 38.8173 72.5516 38.734C72.8012 38.6092 73.1757 38.5468 73.6749 38.5468H81.4139C81.7884 38.5468 82.1005 38.6716 82.3501 38.9213C82.6414 39.1293 82.787 39.4206 82.787 39.795C82.787 40.8768 82.1629 42.1251 80.9146 43.5397C79.708 44.9544 77.9397 46.1818 75.6097 47.222C73.2797 48.2622 70.5336 48.7822 67.3714 48.7822ZM72.614 28.6234V28.4986C72.614 26.4598 72.1355 24.858 71.1785 23.693C70.2631 22.4863 68.9733 21.883 67.309 21.883C65.6863 21.883 64.3965 22.4863 63.4395 23.693C62.5241 24.858 62.0665 26.4598 62.0665 28.4986V28.6234H72.614Z" fill="#4E00F7"/>
    <path d="M109.296 48.7822C105.135 48.7822 101.911 47.3884 99.6224 44.6007V46.5979C99.6224 47.0139 99.4768 47.3884 99.1855 47.7213C98.8943 48.0125 98.5198 48.1581 98.0621 48.1581H91.0097C90.5936 48.1581 90.2191 48.0125 89.8863 47.7213C89.595 47.3884 89.4494 47.0139 89.4494 46.5979V5.40647C89.4494 4.94879 89.595 4.57432 89.8863 4.28307C90.2191 3.99182 90.5936 3.84619 91.0097 3.84619H98.6238C99.0815 3.84619 99.456 3.99182 99.7472 4.28307C100.038 4.57432 100.184 4.94879 100.184 5.40647V18.7625C102.514 16.3076 105.551 15.0802 109.296 15.0802C113.332 15.0802 116.515 16.3908 118.845 19.0121C121.175 21.6334 122.423 25.1908 122.59 29.6844C122.631 30.2253 122.652 30.9743 122.652 31.9312C122.652 32.8466 122.631 33.5747 122.59 34.1156C122.382 38.7757 121.133 42.3955 118.845 44.9752C116.557 47.5132 113.374 48.7822 109.296 48.7822ZM105.926 40.4192C107.881 40.4192 109.275 39.8366 110.107 38.6716C110.981 37.5066 111.481 35.9047 111.605 33.866C111.689 33.0338 111.73 32.3889 111.73 31.9312C111.73 31.4735 111.689 30.8286 111.605 29.9965C111.481 27.9577 110.981 26.3558 110.107 25.1908C109.275 24.0258 107.881 23.4433 105.926 23.4433C104.095 23.4433 102.701 24.005 101.744 25.1284C100.787 26.2518 100.267 27.6665 100.184 29.3724L100.122 31.6816L100.184 34.0532C100.309 35.9255 100.808 37.465 101.682 38.6716C102.597 39.8366 104.012 40.4192 105.926 40.4192Z" fill="#4E00F7"/>
    <path d="M170.299 48.1581C169.883 48.1581 169.509 48.0124 169.176 47.7212C168.885 47.3883 168.739 47.0138 168.739 46.5978V6.0305C168.739 5.57281 168.885 5.19835 169.176 4.90709C169.509 4.61584 169.883 4.47021 170.299 4.47021H186.526C192.643 4.47021 197.386 5.92648 200.756 8.839C204.126 11.7515 205.894 15.9747 206.061 21.5085C206.103 22.7151 206.123 24.317 206.123 26.3141C206.123 28.3113 206.103 29.8924 206.061 31.0574C205.853 36.8408 204.126 41.1472 200.881 43.9765C197.677 46.7642 192.996 48.1581 186.838 48.1581H170.299ZM186.526 39.1708C189.272 39.1708 191.29 38.5259 192.58 37.2361C193.87 35.9047 194.556 33.8035 194.64 30.9326C194.723 29.7259 194.764 28.1657 194.764 26.2517C194.764 24.3378 194.723 22.7983 194.64 21.6333C194.556 18.8456 193.808 16.786 192.393 15.4546C191.02 14.1231 188.96 13.4574 186.214 13.4574H179.973V39.1708H186.526Z" fill="black"/>
    <path d="M227.706 48.7822C222.713 48.7822 218.782 47.4299 215.911 44.7254C213.04 42.021 211.542 38.089 211.417 32.9297V30.7453C211.583 25.8356 213.102 22.0078 215.973 19.2617C218.886 16.474 222.776 15.0801 227.644 15.0801C231.181 15.0801 234.156 15.8082 236.569 17.2645C239.024 18.6792 240.854 20.6347 242.061 23.1312C243.309 25.6276 243.933 28.4985 243.933 31.7439V33.2418C243.933 33.6579 243.788 34.0323 243.496 34.3652C243.205 34.6564 242.831 34.8021 242.373 34.8021H222.401V35.2389C222.485 37.1945 222.963 38.7756 223.837 39.9822C224.711 41.1888 225.98 41.7921 227.644 41.7921C228.684 41.7921 229.537 41.5841 230.203 41.168C230.869 40.7103 231.472 40.1694 232.013 39.5453C232.387 39.0876 232.678 38.8172 232.887 38.734C233.136 38.6091 233.511 38.5467 234.01 38.5467H241.749C242.123 38.5467 242.435 38.6716 242.685 38.9212C242.976 39.1292 243.122 39.4205 243.122 39.795C243.122 40.8767 242.498 42.125 241.25 43.5396C240.043 44.9543 238.275 46.1817 235.945 47.2219C233.615 48.2621 230.869 48.7822 227.706 48.7822ZM232.949 28.6233V28.4985C232.949 26.4598 232.47 24.8579 231.513 23.6929C230.598 22.4862 229.308 21.8829 227.644 21.8829C226.021 21.8829 224.731 22.4862 223.774 23.6929C222.859 24.8579 222.401 26.4598 222.401 28.4985V28.6233H232.949Z" fill="black"/>
    <path d="M260.111 48.1581C259.529 48.1581 259.071 48.0332 258.738 47.7836C258.447 47.4923 258.197 47.0971 257.989 46.5978L246.194 17.639L246.069 17.0773C246.069 16.7028 246.194 16.3908 246.443 16.1411C246.735 15.8499 247.088 15.7042 247.504 15.7042H254.557C255.472 15.7042 256.076 16.1411 256.367 17.0149L263.419 36.1751L270.534 17.0149C270.825 16.1411 271.429 15.7042 272.344 15.7042H279.396C279.771 15.7042 280.104 15.8499 280.395 16.1411C280.686 16.3908 280.832 16.7028 280.832 17.0773L280.707 17.639L268.911 46.5978C268.703 47.0971 268.433 47.4923 268.1 47.7836C267.767 48.0332 267.31 48.1581 266.727 48.1581H260.111Z" fill="black"/>
    <path d="M135.115 48.1583L154.618 2" stroke="black" stroke-width="10"/>
</svg>